
<svg xmlns="http://www.w3.org/2000/svg"
     class="svg-snoweb svg-theme-dark"
     x="0"
     y="0"
     width="100%"
     height="100%"
     viewBox="0 0 100 100"
     preserveAspectRatio="xMidYMid meet"
>
<defs>
    <style>
        
            
            
            
        

        .svg-fill-primary {
            fill: #FFF;
        }

        .svg-fill-secondary {
            fill: #65CDAE;
        }

        .svg-fill-tertiary {
            fill: #37A987;
        }

        .svg-stroke-primary {
            stroke: #FFF;
        }

        .svg-stroke-secondary {
            stroke: #65CDAE;
        }

        .svg-stroke-tertiary {
            stroke: #37A987;
        }
    </style>
</defs>
    <path d="M56,22.7a6.2,6.2,0,0,0-12,0,6.1,6.1,0,0,1-9.1,3.8,6.1,6.1,0,0,0-8.4,8.4A6.1,6.1,0,0,1,22.7,44a6.2,6.2,0,0,0,0,12,6.1,6.1,0,0,1,3.8,9.1,6.1,6.1,0,0,0,8.4,8.4A6.1,6.1,0,0,1,44,77.3a6.2,6.2,0,0,0,12,0,6.1,6.1,0,0,1,9.1-3.8,6.1,6.1,0,0,0,8.4-8.4A6.1,6.1,0,0,1,77.3,56a6.2,6.2,0,0,0,0-12,6.1,6.1,0,0,1-3.8-9.1,6.1,6.1,0,0,0-8.4-8.4A6.1,6.1,0,0,1,56,22.7ZM50,62A12,12,0,1,0,38,50,12,12,0,0,0,50,62Z"
          class="svg-fill-primary" fill-rule="evenodd"/>
</svg>